<svg width="36" height="24" viewBox="0 0 36 24" fill="none" xmlns="http://www.w3.org/2000/svg">
<mask id="path-1-outside-1_5_520" maskUnits="userSpaceOnUse" x="-3.83575" y="-4.46651" width="44.2967" height="32.335" fill="black">
<rect fill="white" x="-3.83575" y="-4.46651" width="44.2967" height="32.335"/>
<path d="M9.17227 19.8558C9.19942 20.0532 8.75825 20.2763 7.84877 20.5252C6.95446 20.772 6.03662 20.9601 5.09524 21.0896C4.16904 21.217 3.56198 21.2463 3.27406 21.1776C3.00132 21.1069 2.84929 20.9576 2.81796 20.7298L0.891374 6.72301C0.839163 6.34342 1.2325 5.94123 2.07137 5.51643C2.90816 5.07645 3.8428 4.78545 4.87528 4.64343C6.31771 4.44503 7.08592 4.68746 7.1799 5.37072L7.86909 10.3813L9.89609 10.1025L9.27269 5.57019C9.22048 5.19061 9.61381 4.78841 10.4527 4.36361C11.3047 3.92154 12.2469 3.62949 13.2794 3.48748C14.7066 3.29117 15.4672 3.53464 15.5612 4.2179L17.5536 18.703C17.5807 18.9004 17.1396 19.1235 16.2301 19.3724C15.3206 19.6212 14.4028 19.8094 13.4766 19.9368C12.5504 20.0642 11.9433 20.0935 11.6554 20.0248C11.3826 19.954 11.2306 19.8048 11.1993 19.577L10.4819 14.3615L8.45489 14.6403L9.17227 19.8558ZM27.2898 1.79246C27.2516 1.62753 27.6666 1.43895 28.5347 1.22672C29.4007 0.999308 30.4259 0.804151 31.6102 0.641253C32.7945 0.478355 33.4107 0.571516 33.4587 0.920738C33.5193 1.36106 33.886 5.03909 34.5587 11.9548C34.5957 12.3365 34.3694 12.7157 33.8798 13.0925C33.3901 13.4693 32.6594 13.7245 31.6877 13.8581C30.3667 14.0398 29.6268 13.778 29.4679 13.0728L27.2898 1.79246ZM35.376 16.7157C35.4825 17.4901 35.3051 18.056 34.8437 18.4134C34.3996 18.7839 33.7296 19.0307 32.8338 19.1539C31.9532 19.2751 31.2587 19.2314 30.7504 19.0228C30.2442 18.8294 29.9337 18.3152 29.8188 17.4801C29.6309 16.1136 30.4631 15.3029 32.3155 15.0481C34.1679 14.7933 35.188 15.3492 35.376 16.7157Z"/>
</mask>
<path d="M9.17227 19.8558C9.19942 20.0532 8.75825 20.2763 7.84877 20.5252C6.95446 20.772 6.03662 20.9601 5.09524 21.0896C4.16904 21.217 3.56198 21.2463 3.27406 21.1776C3.00132 21.1069 2.84929 20.9576 2.81796 20.7298L0.891374 6.72301C0.839163 6.34342 1.2325 5.94123 2.07137 5.51643C2.90816 5.07645 3.8428 4.78545 4.87528 4.64343C6.31771 4.44503 7.08592 4.68746 7.1799 5.37072L7.86909 10.3813L9.89609 10.1025L9.27269 5.57019C9.22048 5.19061 9.61381 4.78841 10.4527 4.36361C11.3047 3.92154 12.2469 3.62949 13.2794 3.48748C14.7066 3.29117 15.4672 3.53464 15.5612 4.2179L17.5536 18.703C17.5807 18.9004 17.1396 19.1235 16.2301 19.3724C15.3206 19.6212 14.4028 19.8094 13.4766 19.9368C12.5504 20.0642 11.9433 20.0935 11.6554 20.0248C11.3826 19.954 11.2306 19.8048 11.1993 19.577L10.4819 14.3615L8.45489 14.6403L9.17227 19.8558ZM27.2898 1.79246C27.2516 1.62753 27.6666 1.43895 28.5347 1.22672C29.4007 0.999308 30.4259 0.804151 31.6102 0.641253C32.7945 0.478355 33.4107 0.571516 33.4587 0.920738C33.5193 1.36106 33.886 5.03909 34.5587 11.9548C34.5957 12.3365 34.3694 12.7157 33.8798 13.0925C33.3901 13.4693 32.6594 13.7245 31.6877 13.8581C30.3667 14.0398 29.6268 13.778 29.4679 13.0728L27.2898 1.79246ZM35.376 16.7157C35.4825 17.4901 35.3051 18.056 34.8437 18.4134C34.3996 18.7839 33.7296 19.0307 32.8338 19.1539C31.9532 19.2751 31.2587 19.2314 30.7504 19.0228C30.2442 18.8294 29.9337 18.3152 29.8188 17.4801C29.6309 16.1136 30.4631 15.3029 32.3155 15.0481C34.1679 14.7933 35.188 15.3492 35.376 16.7157Z" fill="white"/>
<path d="M7.84877 20.5252L6.87797 16.9774L6.87035 16.9795L7.84877 20.5252ZM3.27406 21.1776L2.35009 24.7379L2.38519 24.7471L2.42046 24.7555L3.27406 21.1776ZM2.07137 5.51643L3.73309 8.79793L3.75824 8.78519L3.78319 8.77207L2.07137 5.51643ZM7.86909 10.3813L4.22514 10.8825L4.72636 14.5264L8.3703 14.0252L7.86909 10.3813ZM9.89609 10.1025L10.3973 13.7464L14.0412 13.2452L13.54 9.60127L9.89609 10.1025ZM10.4527 4.36361L12.1144 7.64511L12.1306 7.63689L12.1468 7.62851L10.4527 4.36361ZM16.2301 19.3724L17.2009 22.9202L17.2009 22.9202L16.2301 19.3724ZM11.6554 20.0248L10.7314 23.5851L10.7665 23.5942L10.8018 23.6026L11.6554 20.0248ZM10.4819 14.3615L14.1258 13.8603L13.6246 10.2163L9.98069 10.7175L10.4819 14.3615ZM8.45489 14.6403L7.95368 10.9963L4.30974 11.4975L4.81095 15.1415L8.45489 14.6403ZM5.52833 20.357C5.31579 18.8118 6.13421 17.7831 6.48376 17.4281C6.83811 17.0682 7.16221 16.9088 7.20169 16.8889C7.31824 16.8299 7.26764 16.8707 6.87797 16.9774L8.81956 24.073C9.33938 23.9308 9.96411 23.7356 10.5218 23.4535C10.7819 23.322 11.268 23.0543 11.7259 22.5893C12.1789 22.1291 13.0423 20.9985 12.8162 19.3546L5.52833 20.357ZM6.87035 16.9795C6.13652 17.182 5.37824 17.3378 4.59403 17.4456L5.59645 24.7335C6.69499 24.5824 7.7724 24.362 8.82718 24.0709L6.87035 16.9795ZM4.59403 17.4456C4.18786 17.5015 3.92184 17.5257 3.76766 17.5332C3.69202 17.5368 3.67856 17.5346 3.71137 17.5361C3.72969 17.5369 3.773 17.5393 3.8358 17.5468C3.89644 17.5541 3.99804 17.5689 4.12766 17.5998L2.42046 24.7555C3.0973 24.9169 3.75706 24.8988 4.12293 24.8811C4.57581 24.8592 5.07642 24.8051 5.59645 24.7335L4.59403 17.4456ZM4.19803 17.6173C4.49018 17.6931 5.02384 17.8886 5.53241 18.3879C6.08429 18.9298 6.37599 19.604 6.4619 20.2286L-0.825981 21.231C-0.708737 22.0834 -0.32536 22.9462 0.378548 23.6373C1.03915 24.2859 1.7852 24.5913 2.35009 24.7379L4.19803 17.6173ZM6.4619 20.2286L4.53532 6.2218L-2.75257 7.22422L-0.825981 21.231L6.4619 20.2286ZM4.53532 6.2218C4.72642 7.61118 3.98829 8.49235 3.77694 8.70846C3.56576 8.9244 3.46568 8.93334 3.73309 8.79793L0.409651 2.23494C-0.161816 2.52432 -0.877995 2.94676 -1.48251 3.56489C-2.08719 4.1832 -2.99588 5.45525 -2.75257 7.22422L4.53532 6.2218ZM3.78319 8.77207C4.2053 8.55013 4.72385 8.37714 5.37649 8.28738L4.37406 0.999491C2.96174 1.19375 1.61102 1.60277 0.359552 2.26079L3.78319 8.77207ZM5.37649 8.28738C5.60268 8.25626 5.72237 8.25411 5.75744 8.25481C5.80349 8.25573 5.66726 8.26023 5.4263 8.18418C5.17506 8.1049 4.71951 7.90753 4.2914 7.44789C3.83573 6.95866 3.60592 6.38056 3.53596 5.87193L10.8238 4.86951C10.7069 4.01925 10.3458 3.15463 9.67459 2.43397C9.03094 1.74291 8.27556 1.36922 7.64022 1.16872C6.47181 0.799999 5.26724 0.876638 4.37406 0.999491L5.37649 8.28738ZM3.53596 5.87193L4.22514 10.8825L11.513 9.88008L10.8238 4.86951L3.53596 5.87193ZM8.3703 14.0252L10.3973 13.7464L9.39488 6.45854L7.36788 6.73735L8.3703 14.0252ZM13.54 9.60127L12.9166 5.06898L5.62875 6.0714L6.25215 10.6037L13.54 9.60127ZM12.9166 5.06898C13.1077 6.45836 12.3696 7.33953 12.1583 7.55564C11.9471 7.77158 11.847 7.78052 12.1144 7.64511L8.79097 1.08212C8.2195 1.3715 7.50332 1.79394 6.89881 2.41207C6.29413 3.03038 5.38543 4.30244 5.62875 6.0714L12.9166 5.06898ZM12.1468 7.62851C12.595 7.39595 13.1287 7.22108 13.7806 7.13142L12.7782 -0.156462C11.3651 0.0379052 10.0144 0.447121 8.75859 1.09871L12.1468 7.62851ZM13.7806 7.13142C14.0015 7.10103 14.1158 7.09946 14.1455 7.1001C14.1861 7.10098 14.0445 7.10462 13.7989 7.026C13.542 6.94377 13.0868 6.74243 12.6617 6.28146C12.211 5.79266 11.9861 5.21933 11.9173 4.71911L19.2052 3.71669C19.0894 2.87484 18.7342 2.01485 18.0698 1.29437C17.431 0.60172 16.6788 0.223666 16.0416 0.0196969C14.8712 -0.354952 13.6664 -0.278637 12.7782 -0.156462L13.7806 7.13142ZM11.9173 4.71911L13.9096 19.2042L21.1975 18.2018L19.2052 3.71669L11.9173 4.71911ZM13.9096 19.2042C13.6971 17.659 14.5155 16.6303 14.8651 16.2753C15.2194 15.9153 15.5435 15.756 15.583 15.736C15.6996 15.6771 15.649 15.7179 15.2593 15.8245L17.2009 22.9202C17.7207 22.778 18.3454 22.5828 18.9031 22.3007C19.1632 22.1692 19.6494 21.9015 20.1072 21.4365C20.5603 20.9763 21.4236 19.8457 21.1975 18.2018L13.9096 19.2042ZM15.2593 15.8245C14.5027 16.0316 13.7417 16.1874 12.9753 16.2928L13.9778 23.5807C15.0638 23.4313 16.1384 23.2109 17.2009 22.9202L15.2593 15.8245ZM12.9753 16.2928C12.5692 16.3487 12.3032 16.3729 12.149 16.3804C12.0733 16.384 12.0599 16.3818 12.0927 16.3832C12.111 16.3841 12.1543 16.3865 12.2171 16.394C12.2778 16.4013 12.3794 16.4161 12.509 16.447L10.8018 23.6026C11.4786 23.7641 12.1384 23.746 12.5042 23.7283C12.9571 23.7064 13.4577 23.6522 13.9778 23.5807L12.9753 16.2928ZM12.5793 16.4645C12.8715 16.5403 13.4052 16.7358 13.9137 17.2351C14.4656 17.7769 14.7573 18.4512 14.8432 19.0758L7.55534 20.0782C7.67258 20.9306 8.05596 21.7934 8.75986 22.4845C9.42047 23.133 10.1665 23.4385 10.7314 23.5851L12.5793 16.4645ZM14.8432 19.0758L14.1258 13.8603L6.83796 14.8627L7.55534 20.0782L14.8432 19.0758ZM9.98069 10.7175L7.95368 10.9963L8.95611 18.2842L10.9831 18.0054L9.98069 10.7175ZM4.81095 15.1415L5.52833 20.357L12.8162 19.3546L12.0988 14.1391L4.81095 15.1415ZM27.2898 1.79246L30.9013 1.09511L30.8885 1.029L30.8734 0.963404L27.2898 1.79246ZM28.5347 1.22672L29.4082 4.79975L29.4386 4.79231L29.4689 4.78436L28.5347 1.22672ZM34.5587 11.9548L38.2198 11.5997L38.2197 11.5987L34.5587 11.9548ZM33.8798 13.0925L31.6367 10.1773L31.6367 10.1773L33.8798 13.0925ZM29.4679 13.0728L25.8563 13.7701L25.8671 13.8258L25.8796 13.8812L29.4679 13.0728ZM34.8437 18.4134L32.5911 15.5055L32.5385 15.5463L32.4874 15.5889L34.8437 18.4134ZM30.7504 19.0228L32.1467 15.6199L32.1051 15.6028L32.0631 15.5867L30.7504 19.0228ZM30.8734 0.963404C31.2953 2.78738 30.2293 4.00296 29.8627 4.3469C29.4745 4.71114 29.1215 4.8636 29.0941 4.87603C28.9789 4.9284 29.0278 4.89274 29.4082 4.79975L27.6612 -2.3463C27.1734 -2.22706 26.5808 -2.06232 26.0506 -1.82137C25.8158 -1.71465 25.3119 -1.47085 24.8295 -1.01824C24.3687 -0.585917 23.2651 0.715081 23.7062 2.62152L30.8734 0.963404ZM29.4689 4.78436C30.1544 4.60435 31.028 4.43421 32.1114 4.2852L31.109 -3.00269C29.8238 -2.82591 28.647 -2.60574 27.6005 -2.33091L29.4689 4.78436ZM32.1114 4.2852C32.6125 4.21627 32.6382 4.26027 32.4107 4.22587C32.3006 4.20922 31.8237 4.13222 31.2772 3.76822C30.6119 3.32509 29.9662 2.52246 29.8148 1.42195L37.1027 0.419527C36.9273 -0.855594 36.1865 -1.80083 35.3552 -2.35456C34.6426 -2.82915 33.9286 -2.98474 33.5105 -3.04797C32.6668 -3.17553 31.7922 -3.09667 31.109 -3.00269L32.1114 4.2852ZM29.8148 1.42195C29.8144 1.41944 29.8217 1.47635 29.8395 1.6387C29.8555 1.78466 29.8766 1.98343 29.9029 2.23759C29.9556 2.74513 30.0276 3.45661 30.119 4.37438C30.3019 6.20897 30.5615 8.85396 30.8978 12.311L38.2197 11.5987C37.5542 4.75729 37.1764 0.955642 37.1027 0.419527L29.8148 1.42195ZM30.8977 12.31C30.8293 11.6049 31.0325 11.0187 31.2582 10.6405C31.3621 10.4664 31.4627 10.348 31.527 10.2802C31.5914 10.2121 31.634 10.1794 31.6367 10.1773L36.1229 16.0077C36.9792 15.3487 38.4407 13.8768 38.2198 11.5997L30.8977 12.31ZM31.6367 10.1773C31.7705 10.0744 31.8356 10.0646 31.7517 10.0939C31.6689 10.1229 31.491 10.1723 31.1865 10.2142L32.1889 17.5021C33.4578 17.3275 34.9112 16.9399 36.1229 16.0077L31.6367 10.1773ZM31.1865 10.2142C30.7532 10.2738 30.925 10.1734 31.3689 10.3304C31.6383 10.4258 32.0286 10.6254 32.3902 11.0144C32.762 11.4144 32.967 11.8685 33.0562 12.2644L25.8796 13.8812C26.2642 15.5885 27.4756 16.7563 28.9151 17.2657C30.0989 17.6845 31.3012 17.6242 32.1889 17.5021L31.1865 10.2142ZM33.0794 12.3754L30.9013 1.09511L23.6782 2.48982L25.8563 13.7701L33.0794 12.3754ZM31.7321 17.2169C31.732 17.2168 31.7243 17.162 31.7295 17.063C31.7349 16.9625 31.7541 16.8085 31.813 16.6204C31.9452 16.1991 32.2179 15.7947 32.5911 15.5055L37.0963 21.3212C38.9449 19.8891 39.2366 17.7893 39.0199 16.2145L31.7321 17.2169ZM32.4874 15.5889C32.654 15.4499 32.7658 15.4141 32.7364 15.425C32.7242 15.4295 32.6864 15.4424 32.6173 15.4587C32.5483 15.475 32.4546 15.4932 32.3326 15.51L33.335 22.7979C34.5609 22.6293 36.0071 22.233 37.2 21.2378L32.4874 15.5889ZM32.3326 15.51C32.2057 15.5275 32.1048 15.5363 32.0277 15.5401C31.9502 15.5439 31.9035 15.5423 31.8836 15.541C31.8634 15.5398 31.8784 15.5393 31.9216 15.5484C31.9652 15.5575 32.0438 15.5777 32.1467 15.6199L29.3541 22.4257C30.7255 22.9884 32.1685 22.9583 33.335 22.7979L32.3326 15.51ZM32.0631 15.5867C32.6595 15.8146 33.0667 16.2266 33.2866 16.5907C33.4718 16.8975 33.4776 17.0867 33.4628 16.9789L26.1749 17.9813C26.3629 19.3479 27.0707 21.5546 29.4378 22.4588L32.0631 15.5867ZM33.4628 16.9789C33.472 17.0457 33.4922 17.2787 33.3962 17.6031C33.2937 17.9494 33.1006 18.256 32.8686 18.482C32.6557 18.6894 32.4837 18.7586 32.4743 18.7623C32.4679 18.7648 32.5658 18.7266 32.8167 18.6921L31.8143 11.4042C30.547 11.5785 28.9648 12.0149 27.7355 13.2124C26.3199 14.5912 25.9555 16.3861 26.1749 17.9813L33.4628 16.9789ZM32.8167 18.6921C33.0676 18.6576 33.1722 18.668 33.1653 18.6672C33.1553 18.6662 32.971 18.646 32.71 18.5038C32.4256 18.3489 32.1568 18.1058 31.9647 17.8C31.7847 17.5136 31.7413 17.2837 31.7321 17.2169L39.0199 16.2145C38.8005 14.6193 37.965 12.9895 36.2298 12.044C34.7228 11.2229 33.0816 11.2299 31.8143 11.4042L32.8167 18.6921Z" fill="black" mask="url(#path-1-outside-1_5_520)"/>
</svg>
