<svg width="585" height="586" viewBox="0 0 585 586" fill="none" xmlns="http://www.w3.org/2000/svg">
<path d="M427.374 290.792C427.374 366.853 365.714 428.512 289.654 428.512C213.593 428.512 151.934 366.853 151.934 290.792C151.934 214.732 213.593 153.072 289.654 153.072C365.714 153.072 427.374 214.732 427.374 290.792ZM196.628 290.792C196.628 342.169 238.277 383.818 289.654 383.818C341.031 383.818 382.68 342.169 382.68 290.792C382.68 239.415 341.031 197.766 289.654 197.766C238.277 197.766 196.628 239.415 196.628 290.792Z" fill="#F8BE00"/>
<circle cx="289.085" cy="158.195" r="22.1945" fill="#F8BE00"/>
<circle cx="342.58" cy="166.162" r="22.1945" fill="#F8BE00"/>
<circle cx="391.521" cy="195.755" r="22.1945" fill="#F8BE00"/>
<circle cx="419.976" cy="243.558" r="22.1945" fill="#F8BE00"/>
<circle cx="426.805" cy="297.052" r="22.1945" fill="#F8BE00"/>
<circle cx="409.732" cy="358.515" r="22.1945" fill="#F8BE00"/>
<circle cx="360.791" cy="406.319" r="22.1945" fill="#F8BE00"/>
<circle cx="298.191" cy="427.944" r="22.1945" fill="#F8BE00"/>
<circle cx="235.59" cy="417.7" r="22.1945" fill="#F8BE00"/>
<circle cx="186.649" cy="384.693" r="22.1945" fill="#F8BE00"/>
<circle cx="158.194" cy="327.784" r="22.1945" fill="#F8BE00"/>
<circle cx="158.194" cy="257.216" r="22.1945" fill="#F8BE00"/>
<circle cx="191.201" cy="195.755" r="22.1945" fill="#F8BE00"/>
<circle cx="235.59" cy="166.162" r="22.1945" fill="#F8BE00"/>
<rect x="84.4179" y="298.569" width="417" height="51.5105" rx="25.7552" transform="rotate(-5.14274 84.4179 298.569)" fill="white" stroke="#A50068" stroke-width="2"/>
<path d="M196.125 195.528C200.236 202.698 201.329 211.208 199.165 219.185C197.001 227.162 191.756 233.953 184.586 238.063C177.415 242.174 168.905 243.267 160.928 241.103C152.951 238.939 146.16 233.695 142.05 226.524L124.025 236.856C119.244 239.596 115.748 244.123 114.305 249.441C112.863 254.759 113.592 260.432 116.332 265.213L198.988 409.413C201.729 414.194 206.256 417.69 211.574 419.133C216.892 420.576 222.565 419.847 227.345 417.106L245.37 406.774C241.26 399.604 240.167 391.094 242.331 383.117C244.495 375.14 249.739 368.349 256.91 364.239C264.081 360.128 272.591 359.035 280.568 361.199C288.545 363.363 295.335 368.607 299.446 375.778L317.471 365.446C322.251 362.706 325.747 358.179 327.19 352.861C328.633 347.543 327.904 341.87 325.164 337.089L242.507 192.889C239.767 188.108 235.24 184.612 229.922 183.169C224.604 181.726 218.931 182.455 214.15 185.196L196.125 195.528Z" fill="#FFB3E0" stroke="#A50068" stroke-width="5" stroke-linecap="round" stroke-linejoin="round"/>
<path d="M289.001 274.001L270.976 284.333Z" fill="white"/>
<path d="M289.001 274.001L270.976 284.333" stroke="#A50068" stroke-width="5" stroke-linecap="round" stroke-linejoin="round"/>
<path d="M180.851 335.994L162.826 346.326Z" fill="white"/>
<path d="M180.851 335.994L162.826 346.326" stroke="#A50068" stroke-width="5" stroke-linecap="round" stroke-linejoin="round"/>
<path d="M234.926 304.997L216.901 315.33Z" fill="white"/>
<path d="M234.926 304.997L216.901 315.33" stroke="#A50068" stroke-width="5" stroke-linecap="round" stroke-linejoin="round"/>
<path d="M152.385 279.794C152.012 280.007 151.435 279.755 150.653 279.038C149.884 278.313 149.267 277.544 148.802 276.733C148.695 276.547 148.783 276.223 149.066 275.761C149.341 275.285 149.844 274.714 150.575 274.048C151.306 273.381 152.163 272.766 153.147 272.202C156.964 270.015 159.638 270.257 161.17 272.93C161.596 273.675 161.837 274.464 161.891 275.299C161.946 276.133 161.894 276.86 161.738 277.48C161.573 278.087 161.327 278.705 160.999 279.335C160.614 280.05 160.21 280.67 159.786 281.195L163.775 278.909C163.855 278.863 163.964 278.854 164.103 278.88C164.234 278.893 164.456 279.049 164.768 279.347C165.073 279.631 165.378 280.04 165.682 280.572C165.98 281.09 166.198 281.548 166.337 281.945C166.469 282.329 166.534 282.627 166.532 282.84C166.539 283.314 166.47 283.609 166.325 283.727L166.237 283.805L157.501 288.812C156.663 289.292 155.494 288.223 153.992 285.603C153.825 285.311 154.228 284.011 155.202 281.703C155.579 280.851 155.876 279.983 156.094 279.099C156.311 278.215 156.317 277.593 156.111 277.234C155.882 276.835 155.469 276.807 154.871 277.15C154.272 277.493 153.728 278.008 153.239 278.695C152.762 279.374 152.478 279.74 152.385 279.794ZM178.349 276.094C178.448 276.266 178.122 276.639 177.372 277.21C176.622 277.781 175.835 278.303 175.01 278.776C174.199 279.241 173.647 279.495 173.355 279.539C173.075 279.576 172.878 279.494 172.764 279.295L165.413 266.47C165.215 266.124 165.506 265.63 166.286 264.989C167.08 264.339 168.142 263.634 169.471 262.871C170.801 262.109 171.663 261.624 172.056 261.417C172.455 261.188 172.932 260.941 173.486 260.676C174.041 260.411 174.498 260.238 174.857 260.155C175.23 260.065 175.644 259.987 176.1 259.92C176.57 259.845 176.979 259.866 177.329 259.984C177.672 260.088 178.034 260.242 178.416 260.447C179.103 260.813 179.751 261.528 180.361 262.592C180.963 263.642 181.294 264.636 181.355 265.573C181.42 266.489 181.268 267.301 180.896 268.009C183.805 269.539 185.446 270.63 185.819 271.282C186.193 271.933 185.07 273.01 182.45 274.511C181.692 274.946 181.148 275.213 180.817 275.315C180.487 275.416 180.217 275.376 180.007 275.196L176.356 271.83L176.005 272.005L178.349 276.094ZM174.244 268.933L174.763 268.636C175.534 268.194 175.577 267.374 174.891 266.178C174.54 265.566 174.186 265.195 173.829 265.064C173.484 264.926 173.179 264.933 172.913 265.085L172.255 265.463L174.244 268.933ZM197.485 265.893L189.029 270.74C188.377 271.114 187.911 271.319 187.632 271.355C187.353 271.392 187.156 271.31 187.041 271.111L179.805 258.485C179.606 258.14 179.618 257.806 179.84 257.485C180.076 257.155 180.599 256.758 181.41 256.293L189.428 251.697C189.707 251.537 190.114 251.923 190.647 252.853C191.173 253.771 191.517 254.51 191.679 255.071C191.834 255.618 191.812 255.949 191.612 256.063C190.748 256.558 189.242 257.307 187.096 258.307L187.862 259.644C189.784 258.436 191.044 257.661 191.643 257.318C192.002 257.112 192.421 257.428 192.901 258.265C193.381 259.103 193.674 259.783 193.779 260.306C193.89 260.808 193.826 261.127 193.587 261.264L189.931 263.254L190.663 264.53C192.877 263.031 194.423 262.03 195.301 261.527C195.58 261.367 195.987 261.753 196.52 262.683C197.054 263.614 197.398 264.353 197.552 264.9C197.707 265.448 197.685 265.779 197.485 265.893ZM204.76 260.955C204.859 261.127 204.534 261.5 203.783 262.071C203.033 262.642 202.253 263.16 201.442 263.625C200.63 264.09 200.085 264.341 199.806 264.377C199.526 264.414 199.33 264.332 199.215 264.133L191.864 251.308C191.498 250.67 193.23 249.253 197.059 247.058C199.373 245.732 200.994 245.015 201.921 244.907C203.039 244.761 203.94 244.916 204.625 245.371C205.523 245.952 206.342 246.887 207.081 248.177C208.095 249.945 208.525 251.404 208.37 252.552C208.267 253.389 208.045 254.019 207.705 254.443C207.366 254.868 207.073 255.204 206.826 255.451C206.585 255.678 206.263 255.933 205.86 256.217C205.305 256.605 204.523 257.089 203.512 257.668L203.022 257.923L204.76 260.955ZM201.144 254.6L201.623 254.326C201.876 254.181 202.056 254.034 202.164 253.883C202.265 253.72 202.277 253.448 202.2 253.068C202.129 252.667 201.926 252.174 201.591 251.589C201.248 250.99 200.922 250.576 200.614 250.347C200.311 250.096 200.078 249.982 199.915 250.005C199.757 250.008 199.592 250.058 199.419 250.157L198.801 250.512L201.144 254.6ZM217.382 253.136C217.577 253.537 217.523 253.921 217.221 254.289C216.933 254.648 216.297 255.11 215.313 255.674C214.329 256.238 213.455 256.624 212.691 256.832C211.933 257.02 211.474 256.974 211.313 256.695C211.131 256.375 210.556 254.002 209.59 249.574C208.617 245.132 208.052 242.576 207.898 241.905C207.865 241.694 208.317 241.25 209.253 240.572C210.195 239.873 211.238 239.196 212.381 238.54C213.538 237.877 214.291 237.711 214.639 238.041C221.939 244.951 225.627 248.473 225.703 248.606C225.779 248.739 225.776 248.917 225.692 249.142C225.488 249.648 224.833 250.217 223.73 250.849C221.376 252.199 220.013 252.609 219.639 252.081L218.757 250.865L216.842 251.962L217.382 253.136ZM216.166 247.315L213.809 243.896L213.37 244.148L215.089 247.933L216.166 247.315ZM236.468 242.435C236.237 242.956 235.82 243.522 235.216 244.133C234.618 244.723 233.754 245.342 232.624 245.99C231.507 246.63 230.39 247.147 229.272 247.54C228.155 247.933 227.312 248.142 226.744 248.168C226.175 248.193 225.83 248.1 225.708 247.887C225.282 247.142 224.946 246.31 224.701 245.39C224.449 244.457 224.469 243.907 224.762 243.739C224.815 243.709 225.47 243.572 226.726 243.329C227.982 243.086 228.876 242.812 229.408 242.507C229.94 242.202 230.255 241.951 230.354 241.753C230.445 241.542 230.429 241.33 230.307 241.117C230.185 240.904 229.932 240.802 229.548 240.81C229.157 240.805 228.707 240.868 228.2 241C227.685 241.119 227.1 241.207 226.444 241.265C225.801 241.315 225.177 241.32 224.57 241.279C223.964 241.238 223.362 241.035 222.764 240.671C222.159 240.293 221.659 239.759 221.262 239.067C219.57 236.115 220.486 233.63 224.01 231.61C225.326 230.855 226.513 230.29 227.569 229.914C228.618 229.525 229.396 229.326 229.904 229.318C230.417 229.289 230.731 229.374 230.845 229.573C231.241 230.265 231.502 231.105 231.627 232.093C231.765 233.074 231.681 233.652 231.375 233.827C231.322 233.858 231.115 233.897 230.754 233.945C229.655 234.062 228.814 234.289 228.228 234.624C227.657 234.952 227.295 235.23 227.143 235.458C227.005 235.679 227 235.902 227.13 236.128C227.252 236.341 227.501 236.437 227.877 236.415C228.246 236.38 228.677 236.301 229.172 236.177C229.671 236.032 230.242 235.934 230.885 235.884C231.533 235.812 232.168 235.811 232.79 235.878C233.404 235.933 234.021 236.162 234.641 236.566C235.262 236.97 235.789 237.551 236.223 238.309C236.681 239.107 236.89 239.949 236.851 240.837C236.827 241.381 236.7 241.913 236.468 242.435ZM176.138 308.336C175.035 308.969 174.027 309.414 173.115 309.672C172.208 309.909 171.27 309.952 170.3 309.801C168.355 309.52 166.529 307.891 164.822 304.912C164.105 303.662 163.66 302.469 163.485 301.332C163.324 300.188 163.413 299.157 163.752 298.238C164.419 296.443 165.769 294.962 167.804 293.796C168.854 293.194 169.819 292.765 170.696 292.509C171.588 292.245 172.52 292.161 173.493 292.257C175.469 292.467 177.272 293.995 178.903 296.841C180.367 299.394 180.814 301.637 180.244 303.571C179.674 305.505 178.306 307.094 176.138 308.336ZM173.525 305.303C173.791 305.397 174.064 305.365 174.343 305.205C174.623 305.045 174.789 304.826 174.842 304.548C174.887 304.257 174.784 303.769 174.532 303.083C174.272 302.384 173.819 301.469 173.171 300.339C172.523 299.208 171.97 298.368 171.513 297.817C171.056 297.267 170.695 296.944 170.429 296.849C170.162 296.754 169.89 296.787 169.61 296.947C169.331 297.107 169.165 297.326 169.112 297.604C169.059 297.881 169.155 298.356 169.399 299.029C169.643 299.702 170.089 300.603 170.737 301.733C171.385 302.864 171.945 303.717 172.417 304.295C172.882 304.859 173.251 305.195 173.525 305.303ZM189.603 299.611C189.717 299.811 189.369 300.204 188.558 300.793C187.761 301.374 186.976 301.885 186.205 302.327C185.434 302.769 184.908 303.009 184.629 303.045C184.35 303.082 184.153 303 184.038 302.801L176.79 290.155C176.592 289.81 176.624 289.465 176.885 289.12C177.147 288.776 177.757 288.329 178.714 287.78L186.114 283.539C186.393 283.379 186.823 283.804 187.402 284.815C187.974 285.812 188.345 286.615 188.517 287.223C188.695 287.81 188.684 288.161 188.484 288.275L184.321 290.396L185.099 291.753C186.821 290.659 187.982 289.941 188.58 289.598C188.78 289.484 188.974 289.514 189.162 289.688C189.364 289.855 189.64 290.245 189.991 290.856C190.334 291.455 190.599 292.071 190.786 292.706C190.965 293.327 190.935 293.707 190.696 293.844L187.317 295.622L189.603 299.611ZM201.29 292.912C201.404 293.112 201.056 293.506 200.245 294.094C199.447 294.675 198.663 295.186 197.892 295.628C197.12 296.071 196.595 296.31 196.316 296.346C196.036 296.383 195.839 296.301 195.725 296.102L188.477 283.457C188.279 283.111 188.31 282.766 188.572 282.421C188.834 282.077 189.444 281.63 190.401 281.081L197.801 276.84C198.08 276.68 198.509 277.105 199.089 278.116C199.66 279.113 200.032 279.916 200.204 280.524C200.382 281.111 200.371 281.462 200.171 281.576L196.008 283.697L196.785 285.054C198.508 283.96 199.669 283.242 200.267 282.899C200.466 282.785 200.66 282.815 200.849 282.989C201.051 283.156 201.327 283.546 201.677 284.157C202.02 284.756 202.285 285.372 202.473 286.007C202.652 286.628 202.622 287.008 202.383 287.145L199.003 288.923L201.29 292.912ZM217.856 284.185L209.399 289.032C208.747 289.406 208.282 289.611 208.002 289.647C207.723 289.684 207.526 289.602 207.412 289.403L200.175 276.778C199.977 276.432 199.989 276.098 200.211 275.777C200.446 275.447 200.969 275.05 201.78 274.585L209.798 269.989C210.078 269.829 210.484 270.215 211.017 271.146C211.543 272.063 211.887 272.802 212.05 273.363C212.205 273.91 212.182 274.241 211.983 274.355C211.118 274.85 209.613 275.599 207.466 276.6L208.232 277.936C210.154 276.728 211.415 275.953 212.013 275.61C212.372 275.404 212.791 275.72 213.272 276.558C213.752 277.395 214.045 278.075 214.15 278.598C214.261 279.1 214.197 279.419 213.957 279.556L210.301 281.546L211.033 282.823C213.248 281.323 214.794 280.322 215.671 279.819C215.951 279.659 216.357 280.045 216.89 280.975C217.424 281.906 217.768 282.645 217.923 283.193C218.078 283.74 218.055 284.071 217.856 284.185ZM225.17 279.224C225.269 279.397 224.944 279.769 224.194 280.34C223.444 280.911 222.656 281.433 221.832 281.906C221.021 282.371 220.469 282.625 220.176 282.669C219.897 282.706 219.7 282.624 219.586 282.425L212.234 269.6C212.036 269.254 212.327 268.761 213.108 268.119C213.901 267.47 214.963 266.764 216.293 266.002C217.623 265.24 218.484 264.755 218.877 264.547C219.276 264.318 219.753 264.071 220.308 263.806C220.863 263.541 221.319 263.368 221.679 263.286C222.051 263.196 222.465 263.117 222.922 263.05C223.391 262.975 223.801 262.997 224.151 263.114C224.493 263.218 224.855 263.373 225.238 263.577C225.925 263.943 226.573 264.658 227.183 265.722C227.785 266.772 228.116 267.766 228.176 268.703C228.242 269.62 228.089 270.431 227.717 271.139C230.626 272.669 232.267 273.76 232.641 274.412C233.014 275.063 231.891 276.14 229.272 277.641C228.514 278.076 227.969 278.344 227.639 278.445C227.308 278.546 227.038 278.506 226.829 278.326L223.177 274.961L222.827 275.135L225.17 279.224ZM221.066 272.063L221.584 271.766C222.356 271.324 222.398 270.505 221.712 269.308C221.362 268.696 221.008 268.325 220.65 268.194C220.306 268.056 220.001 268.063 219.735 268.216L219.077 268.593L221.066 272.063ZM242.397 269.482C242.481 269.628 242.137 269.984 241.366 270.55C240.601 271.094 239.806 271.603 238.981 272.076C238.17 272.541 237.633 272.805 237.368 272.868C237.11 272.91 236.931 272.845 236.832 272.672L231.916 264.095L229.144 265.684C228.997 265.768 228.764 265.654 228.444 265.343C228.125 265.032 227.755 264.51 227.336 263.779C226.909 263.034 226.608 262.324 226.432 261.647C226.249 260.957 226.29 260.536 226.556 260.384L237.346 254.199C237.546 254.084 237.785 254.194 238.065 254.529C238.359 254.855 238.707 255.371 239.111 256.076C239.515 256.78 239.823 257.487 240.035 258.196C240.247 258.905 240.227 259.331 239.974 259.476L237.481 260.905L242.397 269.482ZM256.858 260.716C256.627 261.237 256.21 261.803 255.606 262.414C255.008 263.004 254.144 263.623 253.013 264.271C251.897 264.911 250.779 265.428 249.662 265.821C248.545 266.214 247.702 266.423 247.134 266.449C246.565 266.474 246.22 266.381 246.098 266.168C245.671 265.423 245.336 264.591 245.091 263.671C244.839 262.738 244.859 262.188 245.152 262.02C245.205 261.99 245.86 261.853 247.116 261.61C248.372 261.367 249.266 261.093 249.798 260.788C250.33 260.483 250.645 260.232 250.744 260.034C250.835 259.823 250.819 259.611 250.697 259.398C250.575 259.185 250.322 259.083 249.938 259.091C249.547 259.086 249.097 259.149 248.59 259.281C248.075 259.399 247.489 259.488 246.834 259.546C246.191 259.596 245.567 259.601 244.96 259.56C244.354 259.519 243.752 259.316 243.154 258.952C242.549 258.574 242.049 258.04 241.652 257.348C239.96 254.396 240.876 251.911 244.4 249.891C245.716 249.136 246.903 248.571 247.959 248.195C249.008 247.806 249.786 247.607 250.294 247.599C250.807 247.57 251.121 247.655 251.235 247.854C251.631 248.546 251.892 249.386 252.017 250.374C252.155 251.355 252.071 251.933 251.765 252.108C251.712 252.138 251.505 252.178 251.144 252.226C250.045 252.343 249.203 252.57 248.618 252.905C248.047 253.233 247.685 253.511 247.533 253.739C247.395 253.96 247.39 254.183 247.52 254.409C247.642 254.622 247.891 254.718 248.267 254.696C248.636 254.661 249.067 254.582 249.561 254.458C250.061 254.313 250.632 254.215 251.275 254.165C251.923 254.093 252.558 254.092 253.18 254.159C253.794 254.213 254.411 254.443 255.031 254.847C255.651 255.251 256.179 255.832 256.613 256.59C257.071 257.388 257.28 258.23 257.241 259.118C257.217 259.662 257.09 260.194 256.858 260.716Z" fill="black"/>
<path d="M475 300C488.807 300 500 288.583 500 274.5C500 260.417 488.807 249 475 249C461.193 249 450 260.417 450 274.5C450 288.583 461.193 300 475 300Z" stroke="#A50068" stroke-width="5.25" stroke-linecap="round" stroke-linejoin="round"/>
<path d="M507 306L493 292" stroke="#A50068" stroke-width="5.25" stroke-linecap="round" stroke-linejoin="round"/>
</svg>
